<svg xmlns="http://www.w3.org/2000/svg" viewBox="0 0 100 100" role="img"><path d="M5,90 L95,90" fill="#000000" fill-opacity="0.0" stroke="#E7D8C9" stroke-width="1.5"/><path d="M26,90 L26,66" fill="#000000" fill-opacity="0.0" stroke="#E7D8C9" stroke-width="1.5"/><path d="M42.00,64.00 C43.33,64.67 48.33,63.67 50.00,68.00 C51.67,72.33 51.67,86.33 52.00,90.00" fill="#000000" fill-opacity="0.0" stroke="#2F5E58" stroke-width="2.2" stroke-linecap="round" stroke-linejoin="round"/><path d="M42.00,64.00 C40.67,64.67 36.00,63.67 34.00,68.00 C32.00,72.33 30.67,86.33 30.00,90.00" fill="#000000" fill-opacity="0.0" stroke="#2F5E58" stroke-width="3.0" stroke-linecap="round" stroke-linejoin="round"/><path d="M42.00,42.50 C42.00,42.75 42.00,40.42 42.00,44.00 C42.00,47.58 42.00,60.67 42.00,64.00" fill="#000000" fill-opacity="0.0" stroke="#2F5E58" stroke-width="2.6" stroke-linecap="round" stroke-linejoin="round"/><path d="M42.00,44.00 C42.00,44.67 39.67,48.33 42.00,48.00 C44.33,47.67 53.67,43.00 56.00,42.00" fill="#000000" fill-opacity="0.0" stroke="#2F5E58" stroke-width="1.9" stroke-linecap="round" stroke-linejoin="round"/><path d="M33.5,34 a8.5,8.5 0 1,0 17.0,0 a8.5,8.5 0 1,0 -17.0,0" fill="#000000" fill-opacity="0.0" stroke="#2F5E58" stroke-width="1.6"/><path d="M44.22,30.94 a0.5,0.5 0 1,0 1,0 a0.5,0.5 0 1,0 -1,0" fill="#2F5E58"/><path d="M44.22,34.51 a0.5,0.5 0 1,0 1,0 a0.5,0.5 0 1,0 -1,0" fill="#2F5E58"/><path d="M46.074999999999996,34 q1.2,1.53 0,2.9749999999999996" fill="#000000" fill-opacity="0.0" stroke="#2F5E58" stroke-width="0.6" stroke-linecap="round"/><path d="M42.425,36.975 Q45.4,39.695 48.375,36.550000000000004" fill="#000000" fill-opacity="0.0" stroke="#2F5E58" stroke-width="0.7" stroke-linecap="round"/><path d="M56.00,54.00 C56.67,55.67 60.00,60.00 60.00,64.00 C60.00,68.00 56.67,75.67 56.00,78.00" fill="#000000" fill-opacity="0.0" stroke="#B5646B" stroke-width="2.2" stroke-linecap="round" stroke-linejoin="round"/><path d="M56.00,54.00 C54.33,55.33 48.33,58.33 46.00,62.00 C43.67,65.67 42.67,73.67 42.00,76.00" fill="#000000" fill-opacity="0.0" stroke="#B5646B" stroke-width="3.0" stroke-linecap="round" stroke-linejoin="round"/><path d="M56.00,33.50 C56.00,33.92 56.00,32.58 56.00,36.00 C56.00,39.42 56.00,51.00 56.00,54.00" fill="#000000" fill-opacity="0.0" stroke="#B5646B" stroke-width="2.6" stroke-linecap="round" stroke-linejoin="round"/><path d="M56.00,36.00 C56.00,36.67 58.00,40.00 56.00,40.00 C54.00,40.00 46.00,36.67 44.00,36.00" fill="#000000" fill-opacity="0.0" stroke="#B5646B" stroke-width="1.9" stroke-linecap="round" stroke-linejoin="round"/><path d="M48.5,26 a7.5,7.5 0 1,0 15.0,0 a7.5,7.5 0 1,0 -15.0,0" fill="#000000" fill-opacity="0.0" stroke="#B5646B" stroke-width="1.6"/><path d="M53.1,23.3 a0.5,0.5 0 1,0 1,0 a0.5,0.5 0 1,0 -1,0" fill="#B5646B"/><path d="M53.1,26.45 a0.5,0.5 0 1,0 1,0 a0.5,0.5 0 1,0 -1,0" fill="#B5646B"/><path d="M52.475,26 q-1.2,1.3499999999999999 0,2.625" fill="#000000" fill-opacity="0.0" stroke="#B5646B" stroke-width="0.6" stroke-linecap="round"/><path d="M55.625,28.625 Q53.0,31.025 50.375,28.25" fill="#000000" fill-opacity="0.0" stroke="#B5646B" stroke-width="0.7" stroke-linecap="round"/><path d="M62.5,19.5 C68.5,22.5 68.5,29.5 62.5,32.5" fill="#000000" fill-opacity="0.0" stroke="#B5646B" stroke-width="1.6"/></svg>