<svg xmlns="http://www.w3.org/2000/svg" viewBox="0 0 100 100" role="img"><path d="M5,82 L95,82" fill="#000000" fill-opacity="0.0" stroke="#E7D8C9" stroke-width="1.5"/><path d="M8,82 L92,82" fill="#000000" fill-opacity="0.0" stroke="#E7D8C9" stroke-width="1.5"/><path d="M36.00,66.00 C37.33,67.00 43.33,69.33 44.00,72.00 C44.67,74.67 40.67,80.33 40.00,82.00" fill="#000000" fill-opacity="0.0" stroke="#B5646B" stroke-width="2.2" stroke-linecap="round" stroke-linejoin="round"/><path d="M36.00,66.00 C34.33,67.00 27.00,69.33 26.00,72.00 C25.00,74.67 29.33,80.33 30.00,82.00" fill="#000000" fill-opacity="0.0" stroke="#B5646B" stroke-width="3.0" stroke-linecap="round" stroke-linejoin="round"/><path d="M36.00,47.50 C36.00,47.92 36.00,46.92 36.00,50.00 C36.00,53.08 36.00,63.33 36.00,66.00" fill="#000000" fill-opacity="0.0" stroke="#B5646B" stroke-width="2.6" stroke-linecap="round" stroke-linejoin="round"/><path d="M36.00,50.00 C36.17,50.33 35.00,52.00 37.00,52.00 C39.00,52.00 46.17,50.33 48.00,50.00" fill="#000000" fill-opacity="0.0" stroke="#B5646B" stroke-width="1.9" stroke-linecap="round" stroke-linejoin="round"/><path d="M28.5,40 a7.5,7.5 0 1,0 15.0,0 a7.5,7.5 0 1,0 -15.0,0" fill="#000000" fill-opacity="0.0" stroke="#B5646B" stroke-width="1.6"/><path d="M37.9,37.3 a0.5,0.5 0 1,0 1,0 a0.5,0.5 0 1,0 -1,0" fill="#B5646B"/><path d="M37.9,40.45 a0.5,0.5 0 1,0 1,0 a0.5,0.5 0 1,0 -1,0" fill="#B5646B"/><path d="M39.525,40 q1.2,1.3499999999999999 0,2.625" fill="#000000" fill-opacity="0.0" stroke="#B5646B" stroke-width="0.6" stroke-linecap="round"/><path d="M36.375,42.625 Q39.0,45.025 41.625,42.25" fill="#000000" fill-opacity="0.0" stroke="#B5646B" stroke-width="0.7" stroke-linecap="round"/><path d="M29.5,33.5 C23.5,36.5 23.5,43.5 29.5,46.5" fill="#000000" fill-opacity="0.0" stroke="#B5646B" stroke-width="1.6"/><path d="M58.00,66.00 C59.33,67.00 65.33,69.33 66.00,72.00 C66.67,74.67 62.67,80.33 62.00,82.00" fill="#000000" fill-opacity="0.0" stroke="#2F5E58" stroke-width="2.2" stroke-linecap="round" stroke-linejoin="round"/><path d="M58.00,66.00 C56.33,67.00 49.00,69.33 48.00,72.00 C47.00,74.67 51.33,80.33 52.00,82.00" fill="#000000" fill-opacity="0.0" stroke="#2F5E58" stroke-width="3.0" stroke-linecap="round" stroke-linejoin="round"/><path d="M60.00,44.50 C60.00,44.75 60.33,42.42 60.00,46.00 C59.67,49.58 58.33,62.67 58.00,66.00" fill="#000000" fill-opacity="0.0" stroke="#2F5E58" stroke-width="2.6" stroke-linecap="round" stroke-linejoin="round"/><path d="M60.00,46.00 C59.67,46.33 60.33,47.00 58.00,48.00 C55.67,49.00 48.00,51.33 46.00,52.00" fill="#000000" fill-opacity="0.0" stroke="#2F5E58" stroke-width="1.9" stroke-linecap="round" stroke-linejoin="round"/><path d="M51.5,36 a8.5,8.5 0 1,0 17.0,0 a8.5,8.5 0 1,0 -17.0,0" fill="#000000" fill-opacity="0.0" stroke="#2F5E58" stroke-width="1.6"/><path d="M56.78,32.940000000000005 a0.5,0.5 0 1,0 1,0 a0.5,0.5 0 1,0 -1,0" fill="#2F5E58"/><path d="M56.78,36.51 a0.5,0.5 0 1,0 1,0 a0.5,0.5 0 1,0 -1,0" fill="#2F5E58"/><path d="M55.925000000000004,36 q-1.2,1.53 0,2.9749999999999996" fill="#000000" fill-opacity="0.0" stroke="#2F5E58" stroke-width="0.6" stroke-linecap="round"/><path d="M59.575,38.975 Q56.6,41.695 53.625,38.550000000000004" fill="#000000" fill-opacity="0.0" stroke="#2F5E58" stroke-width="0.7" stroke-linecap="round"/></svg>