<svg xmlns="http://www.w3.org/2000/svg" viewBox="0 0 100 100" role="img"><path d="M88,62 L74,40" fill="#000000" fill-opacity="0.0" stroke="#E7D8C9" stroke-width="1.5"/><path d="M48.00,58.00 C43.00,59.67 23.00,66.33 18.00,68.00" fill="#000000" fill-opacity="0.0" stroke="#B5646B" stroke-width="3.0" stroke-linecap="round" stroke-linejoin="round"/><path d="M86.00,27.50 C85.00,28.25 86.33,26.92 80.00,32.00 C73.67,37.08 53.33,53.67 48.00,58.00" fill="#000000" fill-opacity="0.0" stroke="#B5646B" stroke-width="2.6" stroke-linecap="round" stroke-linejoin="round"/><path d="M80.00,32.00 C79.33,31.67 80.67,28.00 76.00,30.00 C71.33,32.00 56.00,41.67 52.00,44.00" fill="#000000" fill-opacity="0.0" stroke="#B5646B" stroke-width="1.9" stroke-linecap="round" stroke-linejoin="round"/><path d="M78.5,20 a7.5,7.5 0 1,0 15.0,0 a7.5,7.5 0 1,0 -15.0,0" fill="#000000" fill-opacity="0.0" stroke="#B5646B" stroke-width="1.6"/><path d="M83.1,17.3 a0.5,0.5 0 1,0 1,0 a0.5,0.5 0 1,0 -1,0" fill="#B5646B"/><path d="M83.1,20.45 a0.5,0.5 0 1,0 1,0 a0.5,0.5 0 1,0 -1,0" fill="#B5646B"/><path d="M82.475,20 q-1.2,1.3499999999999999 0,2.625" fill="#000000" fill-opacity="0.0" stroke="#B5646B" stroke-width="0.6" stroke-linecap="round"/><path d="M85.625,22.625 Q83.0,25.025 80.375,22.25" fill="#000000" fill-opacity="0.0" stroke="#B5646B" stroke-width="0.7" stroke-linecap="round"/><path d="M92.5,13.5 C98.5,16.5 98.5,23.5 92.5,26.5" fill="#000000" fill-opacity="0.0" stroke="#B5646B" stroke-width="1.6"/><path d="M52.00,42.00 C57.00,40.33 77.00,33.67 82.00,32.00" fill="#000000" fill-opacity="0.0" stroke="#2F5E58" stroke-width="3.0" stroke-linecap="round" stroke-linejoin="round"/><path d="M14.00,88.50 C15.00,85.08 13.67,75.75 20.00,68.00 C26.33,60.25 46.67,46.33 52.00,42.00" fill="#000000" fill-opacity="0.0" stroke="#2F5E58" stroke-width="2.6" stroke-linecap="round" stroke-linejoin="round"/><path d="M20.00,68.00 C20.67,68.33 19.33,72.00 24.00,70.00 C28.67,68.00 44.00,58.33 48.00,56.00" fill="#000000" fill-opacity="0.0" stroke="#2F5E58" stroke-width="1.9" stroke-linecap="round" stroke-linejoin="round"/><path d="M5.5,80 a8.5,8.5 0 1,0 17.0,0 a8.5,8.5 0 1,0 -17.0,0" fill="#000000" fill-opacity="0.0" stroke="#2F5E58" stroke-width="1.6"/><path d="M16.22,76.94 a0.5,0.5 0 1,0 1,0 a0.5,0.5 0 1,0 -1,0" fill="#2F5E58"/><path d="M16.22,80.50999999999999 a0.5,0.5 0 1,0 1,0 a0.5,0.5 0 1,0 -1,0" fill="#2F5E58"/><path d="M18.075,80 q1.2,1.53 0,2.9749999999999996" fill="#000000" fill-opacity="0.0" stroke="#2F5E58" stroke-width="0.6" stroke-linecap="round"/><path d="M14.425,82.975 Q17.4,85.695 20.375,82.55" fill="#000000" fill-opacity="0.0" stroke="#2F5E58" stroke-width="0.7" stroke-linecap="round"/></svg>