<svg xmlns="http://www.w3.org/2000/svg" viewBox="0 0 100 100" role="img"><path d="M5,88 L95,88" fill="#000000" fill-opacity="0.0" stroke="#E7D8C9" stroke-width="1.5"/><path d="M20,76 L50,76" fill="#000000" fill-opacity="0.0" stroke="#E7D8C9" stroke-width="1.5"/><path d="M50,88 L78,88" fill="#000000" fill-opacity="0.0" stroke="#E7D8C9" stroke-width="1.5"/><path d="M40.00,60.00 C41.00,62.67 45.00,73.33 46.00,76.00" fill="#000000" fill-opacity="0.0" stroke="#B5646B" stroke-width="2.2" stroke-linecap="round" stroke-linejoin="round"/><path d="M40.00,60.00 C39.00,62.67 35.00,73.33 34.00,76.00" fill="#000000" fill-opacity="0.0" stroke="#B5646B" stroke-width="3.0" stroke-linecap="round" stroke-linejoin="round"/><path d="M40.00,34.00 C40.00,34.33 40.00,31.67 40.00,36.00 C40.00,40.33 40.00,56.00 40.00,60.00" fill="#000000" fill-opacity="0.0" stroke="#B5646B" stroke-width="2.6" stroke-linecap="round" stroke-linejoin="round"/><path d="M40.00,36.00 C40.00,36.67 37.67,38.33 40.00,40.00 C42.33,41.67 51.67,45.00 54.00,46.00" fill="#000000" fill-opacity="0.0" stroke="#B5646B" stroke-width="1.9" stroke-linecap="round" stroke-linejoin="round"/><path d="M32,26 a8,8 0 1,0 16,0 a8,8 0 1,0 -16,0" fill="#000000" fill-opacity="0.0" stroke="#B5646B" stroke-width="1.6"/><path d="M42.06,23.12 a0.5,0.5 0 1,0 1,0 a0.5,0.5 0 1,0 -1,0" fill="#B5646B"/><path d="M42.06,26.48 a0.5,0.5 0 1,0 1,0 a0.5,0.5 0 1,0 -1,0" fill="#B5646B"/><path d="M43.8,26 q1.2,1.44 0,2.8" fill="#000000" fill-opacity="0.0" stroke="#B5646B" stroke-width="0.6" stroke-linecap="round"/><path d="M40.4,28.8 Q43.2,31.36 46.0,28.400000000000002" fill="#000000" fill-opacity="0.0" stroke="#B5646B" stroke-width="0.7" stroke-linecap="round"/><path d="M33,19 C27,22 27,30 33,33" fill="#000000" fill-opacity="0.0" stroke="#B5646B" stroke-width="1.6"/><path d="M62.00,68.00 C63.17,71.33 67.83,84.67 69.00,88.00" fill="#000000" fill-opacity="0.0" stroke="#2F5E58" stroke-width="2.2" stroke-linecap="round" stroke-linejoin="round"/><path d="M62.00,68.00 C60.83,71.33 56.17,84.67 55.00,88.00" fill="#000000" fill-opacity="0.0" stroke="#2F5E58" stroke-width="3.0" stroke-linecap="round" stroke-linejoin="round"/><path d="M62.00,42.50 C62.00,42.75 62.00,39.75 62.00,44.00 C62.00,48.25 62.00,64.00 62.00,68.00" fill="#000000" fill-opacity="0.0" stroke="#2F5E58" stroke-width="2.6" stroke-linecap="round" stroke-linejoin="round"/><path d="M62.00,44.00 C62.00,44.67 64.33,46.33 62.00,48.00 C59.67,49.67 50.33,53.00 48.00,54.00" fill="#000000" fill-opacity="0.0" stroke="#2F5E58" stroke-width="1.9" stroke-linecap="round" stroke-linejoin="round"/><path d="M53.5,34 a8.5,8.5 0 1,0 17.0,0 a8.5,8.5 0 1,0 -17.0,0" fill="#000000" fill-opacity="0.0" stroke="#2F5E58" stroke-width="1.6"/><path d="M58.78,30.94 a0.5,0.5 0 1,0 1,0 a0.5,0.5 0 1,0 -1,0" fill="#2F5E58"/><path d="M58.78,34.51 a0.5,0.5 0 1,0 1,0 a0.5,0.5 0 1,0 -1,0" fill="#2F5E58"/><path d="M57.925000000000004,34 q-1.2,1.53 0,2.9749999999999996" fill="#000000" fill-opacity="0.0" stroke="#2F5E58" stroke-width="0.6" stroke-linecap="round"/><path d="M61.575,36.975 Q58.6,39.695 55.625,36.550000000000004" fill="#000000" fill-opacity="0.0" stroke="#2F5E58" stroke-width="0.7" stroke-linecap="round"/></svg>