<svg xmlns="http://www.w3.org/2000/svg" viewBox="0 0 100 100" role="img"><path d="M50,54 m-28,0 a28,34 0 1,0 56,0 a28,34 0 1,0 -56,0" fill="#000000" fill-opacity="0.0" stroke="#8A7570" stroke-width="2.5" stroke-linecap="round"/><path d="M30,40 Q38,29 46,39" fill="#000000" fill-opacity="0.0" stroke="#B14F5B" stroke-width="3.5" stroke-linecap="round"/><path d="M56,41 Q62,37 68,42" fill="#000000" fill-opacity="0.0" stroke="#8A7570" stroke-width="2.3" stroke-linecap="round"/><path d="M34,50 a4,2.2 0 1,0 8,0 a4,2.2 0 1,0 -8,0" fill="#000000" fill-opacity="0.0" stroke="#8A7570" stroke-width="2" stroke-linecap="round"/><path d="M58,50 a4,2.2 0 1,0 8,0 a4,2.2 0 1,0 -8,0" fill="#000000" fill-opacity="0.0" stroke="#8A7570" stroke-width="2" stroke-linecap="round"/><path d="M50,48 L47,65 Q50,67.5 53,65" fill="#000000" fill-opacity="0.0" stroke="#8A7570" stroke-width="2" stroke-linecap="round"/><path d="M28,62 a5,5 0 1,0 10,0 a5,5 0 1,0 -10,0" fill="#000000" fill-opacity="0.0" stroke="#8A7570" stroke-width="1.5" stroke-linecap="round"/><path d="M62,62 a5,5 0 1,0 10,0 a5,5 0 1,0 -10,0" fill="#000000" fill-opacity="0.0" stroke="#8A7570" stroke-width="1.5" stroke-linecap="round"/><path d="M40,78 Q50,81 60,78" fill="#000000" fill-opacity="0.0" stroke="#8A7570" stroke-width="2.3" stroke-linecap="round"/></svg>