<svg xmlns="http://www.w3.org/2000/svg" viewBox="0 0 100 100" role="img"><path d="M21,89 a7,2.2 0 1,0 14,0 a7,2.2 0 1,0 -14,0" fill="#000022" fill-opacity="0.0"/><path d="M81,89 a7,2.2 0 1,0 14,0 a7,2.2 0 1,0 -14,0" fill="#000022" fill-opacity="0.0"/><path d="M5,89 L95,89" fill="#000000" fill-opacity="0.0" stroke="#E4D5DA" stroke-width="1.5"/><path d="M45.00,28.00 C45.00,32.50 45.00,50.50 45.00,55.00" fill="#000000" fill-opacity="0.0" stroke="#C97086" stroke-width="3.2" stroke-linecap="round" stroke-linejoin="round"/><path d="M45.00,55.00 L35.65,74.25" fill="#000000" fill-opacity="0.0" stroke="#3F7568" stroke-width="5.4" stroke-linecap="round" stroke-linejoin="round"/><path d="M35.65,74.25 L28.00,90.00" fill="#000000" fill-opacity="0.0" stroke="#699389" stroke-width="3.4" stroke-linecap="round" stroke-linejoin="round"/><path d="M33.75,74.25 a1.9,1.9 0 1,0 3.80,0 a1.9,1.9 0 1,0 -3.80,0" fill="#699389"/><path d="M45.00,55.00 L68.65,67.65" fill="#000000" fill-opacity="0.0" stroke="#3F7568" stroke-width="5.4" stroke-linecap="round" stroke-linejoin="round"/><path d="M68.65,67.65 L88.00,78.00" fill="#000000" fill-opacity="0.0" stroke="#699389" stroke-width="3.4" stroke-linecap="round" stroke-linejoin="round"/><path d="M66.75,67.65 a1.9,1.9 0 1,0 3.80,0 a1.9,1.9 0 1,0 -3.80,0" fill="#699389"/><path d="M45.00,28.00 L36.75,15.90" fill="#000000" fill-opacity="0.0" stroke="#D9760F" stroke-width="2.6" stroke-linecap="round" stroke-linejoin="round"/><path d="M36.75,15.90 L30.00,6.00" fill="#000000" fill-opacity="0.0" stroke="#E19444" stroke-width="1.6" stroke-linecap="round" stroke-linejoin="round"/><path d="M34.85,15.90 a1.9,1.9 0 1,0 3.80,0 a1.9,1.9 0 1,0 -3.80,0" fill="#E19444"/><path d="M27.30,6.00 a2.7,2.7 0 1,0 5.40,0 a2.7,2.7 0 1,0 -5.40,0" fill="#E19444"/><path d="M45.00,28.00 L53.25,15.90" fill="#000000" fill-opacity="0.0" stroke="#D9760F" stroke-width="2.6" stroke-linecap="round" stroke-linejoin="round"/><path d="M53.25,15.90 L60.00,6.00" fill="#000000" fill-opacity="0.0" stroke="#E19444" stroke-width="1.6" stroke-linecap="round" stroke-linejoin="round"/><path d="M51.35,15.90 a1.9,1.9 0 1,0 3.80,0 a1.9,1.9 0 1,0 -3.80,0" fill="#E19444"/><path d="M57.30,6.00 a2.7,2.7 0 1,0 5.40,0 a2.7,2.7 0 1,0 -5.40,0" fill="#E19444"/><path d="M38,20 a7,7 0 1,0 14,0 a7,7 0 1,0 -14,0" fill="#000000" fill-opacity="0.0" stroke="#2B2038" stroke-width="3"/><path d="M46.61,17.48 a0.63,0.63 0 1,0 1.26,0 a0.63,0.63 0 1,0 -1.26,0" fill="#2B2038"/><path d="M46.61,20.42 a0.63,0.63 0 1,0 1.26,0 a0.63,0.63 0 1,0 -1.26,0" fill="#2B2038"/><path d="M48.25,20.00 q1.40,1.26 0,2.45" fill="#000000" fill-opacity="0.0" stroke="#2B2038" stroke-width="0.70" stroke-linecap="round"/><path d="M45.35,22.45 Q47.80,24.69 50.25,22.10" fill="#000000" fill-opacity="0.0" stroke="#2B2038" stroke-width="0.84" stroke-linecap="round"/></svg>