<svg xmlns="http://www.w3.org/2000/svg" viewBox="0 0 100 100" role="img"><path d="M28,83 a7,2.2 0 1,0 14,0 a7,2.2 0 1,0 -14,0" fill="#000022" fill-opacity="0.0"/><path d="M58,83 a7,2.2 0 1,0 14,0 a7,2.2 0 1,0 -14,0" fill="#000022" fill-opacity="0.0"/><path d="M5,83 L95,83" fill="#000000" fill-opacity="0.0" stroke="#E4D5DA" stroke-width="1.5"/><path d="M50.00,45.00 C52.50,46.67 62.50,53.33 65.00,55.00" fill="#000000" fill-opacity="0.0" stroke="#C97086" stroke-width="3.2" stroke-linecap="round" stroke-linejoin="round"/><path d="M65.00,55.00 L43.00,44.00" fill="#000000" fill-opacity="0.0" stroke="#3F7568" stroke-width="5.4" stroke-linecap="round" stroke-linejoin="round"/><path d="M43.00,44.00 L25.00,35.00" fill="#000000" fill-opacity="0.0" stroke="#699389" stroke-width="3.4" stroke-linecap="round" stroke-linejoin="round"/><path d="M41.10,44.00 a1.9,1.9 0 1,0 3.80,0 a1.9,1.9 0 1,0 -3.80,0" fill="#699389"/><path d="M65.00,55.00 L76.00,49.50" fill="#000000" fill-opacity="0.0" stroke="#3F7568" stroke-width="5.4" stroke-linecap="round" stroke-linejoin="round"/><path d="M76.00,49.50 L85.00,45.00" fill="#000000" fill-opacity="0.0" stroke="#699389" stroke-width="3.4" stroke-linecap="round" stroke-linejoin="round"/><path d="M74.10,49.50 a1.9,1.9 0 1,0 3.80,0 a1.9,1.9 0 1,0 -3.80,0" fill="#699389"/><path d="M50.00,45.00 L41.75,64.25" fill="#000000" fill-opacity="0.0" stroke="#D9760F" stroke-width="2.6" stroke-linecap="round" stroke-linejoin="round"/><path d="M41.75,64.25 L35.00,80.00" fill="#000000" fill-opacity="0.0" stroke="#E19444" stroke-width="1.6" stroke-linecap="round" stroke-linejoin="round"/><path d="M39.85,64.25 a1.9,1.9 0 1,0 3.80,0 a1.9,1.9 0 1,0 -3.80,0" fill="#E19444"/><path d="M32.30,80.00 a2.7,2.7 0 1,0 5.40,0 a2.7,2.7 0 1,0 -5.40,0" fill="#E19444"/><path d="M50.00,45.00 L58.25,64.25" fill="#000000" fill-opacity="0.0" stroke="#D9760F" stroke-width="2.6" stroke-linecap="round" stroke-linejoin="round"/><path d="M58.25,64.25 L65.00,80.00" fill="#000000" fill-opacity="0.0" stroke="#E19444" stroke-width="1.6" stroke-linecap="round" stroke-linejoin="round"/><path d="M56.35,64.25 a1.9,1.9 0 1,0 3.80,0 a1.9,1.9 0 1,0 -3.80,0" fill="#E19444"/><path d="M62.30,80.00 a2.7,2.7 0 1,0 5.40,0 a2.7,2.7 0 1,0 -5.40,0" fill="#E19444"/><path d="M54,40 a6,6 0 1,0 12,0 a6,6 0 1,0 -12,0" fill="#000000" fill-opacity="0.0" stroke="#2B2038" stroke-width="3"/><path d="M61.38,37.84 a0.54,0.54 0 1,0 1.08,0 a0.54,0.54 0 1,0 -1.08,0" fill="#2B2038"/><path d="M61.38,40.36 a0.54,0.54 0 1,0 1.08,0 a0.54,0.54 0 1,0 -1.08,0" fill="#2B2038"/><path d="M62.70,40.00 q1.20,1.08 0,2.10" fill="#000000" fill-opacity="0.0" stroke="#2B2038" stroke-width="0.60" stroke-linecap="round"/><path d="M60.30,42.10 Q62.40,44.02 64.50,41.80" fill="#000000" fill-opacity="0.0" stroke="#2B2038" stroke-width="0.72" stroke-linecap="round"/></svg>