<svg xmlns="http://www.w3.org/2000/svg" viewBox="0 0 100 100" role="img"><path d="M28,92 a7,2.2 0 1,0 14,0 a7,2.2 0 1,0 -14,0" fill="#000022" fill-opacity="0.0"/><path d="M58,92 a7,2.2 0 1,0 14,0 a7,2.2 0 1,0 -14,0" fill="#000022" fill-opacity="0.0"/><path d="M5,92 L95,92" fill="#000000" fill-opacity="0.0" stroke="#E4D5DA" stroke-width="1.5"/><path d="M50.00,80.00 C50.00,75.00 50.00,55.00 50.00,50.00" fill="#000000" fill-opacity="0.0" stroke="#C97086" stroke-width="3.2" stroke-linecap="round" stroke-linejoin="round"/><path d="M50.00,50.00 L50.00,29.10" fill="#000000" fill-opacity="0.0" stroke="#3F7568" stroke-width="5.4" stroke-linecap="round" stroke-linejoin="round"/><path d="M50.00,29.10 L50.00,12.00" fill="#000000" fill-opacity="0.0" stroke="#699389" stroke-width="3.4" stroke-linecap="round" stroke-linejoin="round"/><path d="M48.10,29.10 a1.9,1.9 0 1,0 3.80,0 a1.9,1.9 0 1,0 -3.80,0" fill="#699389"/><path d="M50.00,82.00 L41.75,82.00" fill="#000000" fill-opacity="0.0" stroke="#D9760F" stroke-width="2.6" stroke-linecap="round" stroke-linejoin="round"/><path d="M41.75,82.00 L35.00,82.00" fill="#000000" fill-opacity="0.0" stroke="#E19444" stroke-width="1.6" stroke-linecap="round" stroke-linejoin="round"/><path d="M39.85,82.00 a1.9,1.9 0 1,0 3.80,0 a1.9,1.9 0 1,0 -3.80,0" fill="#E19444"/><path d="M32.30,82.00 a2.7,2.7 0 1,0 5.40,0 a2.7,2.7 0 1,0 -5.40,0" fill="#E19444"/><path d="M50.00,82.00 L58.25,82.00" fill="#000000" fill-opacity="0.0" stroke="#D9760F" stroke-width="2.6" stroke-linecap="round" stroke-linejoin="round"/><path d="M58.25,82.00 L65.00,82.00" fill="#000000" fill-opacity="0.0" stroke="#E19444" stroke-width="1.6" stroke-linecap="round" stroke-linejoin="round"/><path d="M56.35,82.00 a1.9,1.9 0 1,0 3.80,0 a1.9,1.9 0 1,0 -3.80,0" fill="#E19444"/><path d="M62.30,82.00 a2.7,2.7 0 1,0 5.40,0 a2.7,2.7 0 1,0 -5.40,0" fill="#E19444"/><path d="M32,85 a6,6 0 1,0 12,0 a6,6 0 1,0 -12,0" fill="#000000" fill-opacity="0.0" stroke="#2B2038" stroke-width="3"/><path d="M35.54,82.84 a0.54,0.54 0 1,0 1.08,0 a0.54,0.54 0 1,0 -1.08,0" fill="#2B2038"/><path d="M35.54,85.36 a0.54,0.54 0 1,0 1.08,0 a0.54,0.54 0 1,0 -1.08,0" fill="#2B2038"/><path d="M35.30,85.00 q-1.20,1.08 0,2.10" fill="#000000" fill-opacity="0.0" stroke="#2B2038" stroke-width="0.60" stroke-linecap="round"/><path d="M37.70,87.10 Q35.60,89.02 33.50,86.80" fill="#000000" fill-opacity="0.0" stroke="#2B2038" stroke-width="0.72" stroke-linecap="round"/></svg>