<svg xmlns="http://www.w3.org/2000/svg" viewBox="0 0 100 100" role="img"><path d="M3,52 a7,2.2 0 1,0 14,0 a7,2.2 0 1,0 -14,0" fill="#000022" fill-opacity="0.0"/><path d="M5,52 L95,52" fill="#000000" fill-opacity="0.0" stroke="#E4D5DA" stroke-width="1.5"/><path d="M16.00,49.00 C20.83,49.50 40.17,51.50 45.00,52.00" fill="#000000" fill-opacity="0.0" stroke="#C97086" stroke-width="3.2" stroke-linecap="round" stroke-linejoin="round"/><path d="M45.00,52.00 L39.50,31.65" fill="#000000" fill-opacity="0.0" stroke="#3F7568" stroke-width="5.4" stroke-linecap="round" stroke-linejoin="round"/><path d="M39.50,31.65 L35.00,15.00" fill="#000000" fill-opacity="0.0" stroke="#699389" stroke-width="3.4" stroke-linecap="round" stroke-linejoin="round"/><path d="M37.60,31.65 a1.9,1.9 0 1,0 3.80,0 a1.9,1.9 0 1,0 -3.80,0" fill="#699389"/><path d="M45.00,52.00 L53.25,34.40" fill="#000000" fill-opacity="0.0" stroke="#3F7568" stroke-width="5.4" stroke-linecap="round" stroke-linejoin="round"/><path d="M53.25,34.40 L60.00,20.00" fill="#000000" fill-opacity="0.0" stroke="#699389" stroke-width="3.4" stroke-linecap="round" stroke-linejoin="round"/><path d="M51.35,34.40 a1.9,1.9 0 1,0 3.80,0 a1.9,1.9 0 1,0 -3.80,0" fill="#699389"/><path d="M20.00,49.00 L26.60,34.15" fill="#000000" fill-opacity="0.0" stroke="#D9760F" stroke-width="2.6" stroke-linecap="round" stroke-linejoin="round"/><path d="M26.60,34.15 L32.00,22.00" fill="#000000" fill-opacity="0.0" stroke="#E19444" stroke-width="1.6" stroke-linecap="round" stroke-linejoin="round"/><path d="M24.70,34.15 a1.9,1.9 0 1,0 3.80,0 a1.9,1.9 0 1,0 -3.80,0" fill="#E19444"/><path d="M29.30,22.00 a2.7,2.7 0 1,0 5.40,0 a2.7,2.7 0 1,0 -5.40,0" fill="#E19444"/><path d="M20.00,49.00 L39.25,35.80" fill="#000000" fill-opacity="0.0" stroke="#D9760F" stroke-width="2.6" stroke-linecap="round" stroke-linejoin="round"/><path d="M39.25,35.80 L55.00,25.00" fill="#000000" fill-opacity="0.0" stroke="#E19444" stroke-width="1.6" stroke-linecap="round" stroke-linejoin="round"/><path d="M37.35,35.80 a1.9,1.9 0 1,0 3.80,0 a1.9,1.9 0 1,0 -3.80,0" fill="#E19444"/><path d="M52.30,25.00 a2.7,2.7 0 1,0 5.40,0 a2.7,2.7 0 1,0 -5.40,0" fill="#E19444"/><path d="M4,50 a6,6 0 1,0 12,0 a6,6 0 1,0 -12,0" fill="#000000" fill-opacity="0.0" stroke="#2B2038" stroke-width="3"/><path d="M11.38,47.84 a0.54,0.54 0 1,0 1.08,0 a0.54,0.54 0 1,0 -1.08,0" fill="#2B2038"/><path d="M11.38,50.36 a0.54,0.54 0 1,0 1.08,0 a0.54,0.54 0 1,0 -1.08,0" fill="#2B2038"/><path d="M12.70,50.00 q1.20,1.08 0,2.10" fill="#000000" fill-opacity="0.0" stroke="#2B2038" stroke-width="0.60" stroke-linecap="round"/><path d="M10.30,52.10 Q12.40,54.02 14.50,51.80" fill="#000000" fill-opacity="0.0" stroke="#2B2038" stroke-width="0.72" stroke-linecap="round"/></svg>