<svg xmlns="http://www.w3.org/2000/svg" viewBox="0 0 100 100" role="img"><path d="M28,92 a7,2.2 0 1,0 14,0 a7,2.2 0 1,0 -14,0" fill="#000022" fill-opacity="0.0"/><path d="M58,92 a7,2.2 0 1,0 14,0 a7,2.2 0 1,0 -14,0" fill="#000022" fill-opacity="0.0"/><path d="M5,92 L95,92" fill="#000000" fill-opacity="0.0" stroke="#E4D5DA" stroke-width="1.5"/><path d="M50.00,70.00 C51.67,65.00 58.33,45.00 60.00,40.00" fill="#000000" fill-opacity="0.0" stroke="#C97086" stroke-width="3.2" stroke-linecap="round" stroke-linejoin="round"/><path d="M60.00,40.00 L62.75,23.50" fill="#000000" fill-opacity="0.0" stroke="#3F7568" stroke-width="5.4" stroke-linecap="round" stroke-linejoin="round"/><path d="M62.75,23.50 L65.00,10.00" fill="#000000" fill-opacity="0.0" stroke="#699389" stroke-width="3.4" stroke-linecap="round" stroke-linejoin="round"/><path d="M60.85,23.50 a1.9,1.9 0 1,0 3.80,0 a1.9,1.9 0 1,0 -3.80,0" fill="#699389"/><path d="M50.00,78.00 L41.75,78.00" fill="#000000" fill-opacity="0.0" stroke="#D9760F" stroke-width="2.6" stroke-linecap="round" stroke-linejoin="round"/><path d="M41.75,78.00 L35.00,78.00" fill="#000000" fill-opacity="0.0" stroke="#E19444" stroke-width="1.6" stroke-linecap="round" stroke-linejoin="round"/><path d="M39.85,78.00 a1.9,1.9 0 1,0 3.80,0 a1.9,1.9 0 1,0 -3.80,0" fill="#E19444"/><path d="M32.30,78.00 a2.7,2.7 0 1,0 5.40,0 a2.7,2.7 0 1,0 -5.40,0" fill="#E19444"/><path d="M50.00,78.00 L58.25,78.00" fill="#000000" fill-opacity="0.0" stroke="#D9760F" stroke-width="2.6" stroke-linecap="round" stroke-linejoin="round"/><path d="M58.25,78.00 L65.00,78.00" fill="#000000" fill-opacity="0.0" stroke="#E19444" stroke-width="1.6" stroke-linecap="round" stroke-linejoin="round"/><path d="M56.35,78.00 a1.9,1.9 0 1,0 3.80,0 a1.9,1.9 0 1,0 -3.80,0" fill="#E19444"/><path d="M62.30,78.00 a2.7,2.7 0 1,0 5.40,0 a2.7,2.7 0 1,0 -5.40,0" fill="#E19444"/><path d="M43,80 a7,7 0 1,0 14,0 a7,7 0 1,0 -14,0" fill="#000000" fill-opacity="0.0" stroke="#2B2038" stroke-width="3"/><path d="M47.13,77.48 a0.63,0.63 0 1,0 1.26,0 a0.63,0.63 0 1,0 -1.26,0" fill="#2B2038"/><path d="M47.13,80.42 a0.63,0.63 0 1,0 1.26,0 a0.63,0.63 0 1,0 -1.26,0" fill="#2B2038"/><path d="M46.75,80.00 q-1.40,1.26 0,2.45" fill="#000000" fill-opacity="0.0" stroke="#2B2038" stroke-width="0.70" stroke-linecap="round"/><path d="M49.65,82.45 Q47.20,84.69 44.75,82.10" fill="#000000" fill-opacity="0.0" stroke="#2B2038" stroke-width="0.84" stroke-linecap="round"/></svg>