<svg xmlns="http://www.w3.org/2000/svg" viewBox="0 0 100 100" role="img"><path d="M8,52 a7,2.2 0 1,0 14,0 a7,2.2 0 1,0 -14,0" fill="#000022" fill-opacity="0.0"/><path d="M5,52 L95,52" fill="#000000" fill-opacity="0.0" stroke="#E4D5DA" stroke-width="1.5"/><path d="M21.00,49.00 C25.00,49.17 41.00,49.83 45.00,50.00" fill="#000000" fill-opacity="0.0" stroke="#C97086" stroke-width="3.2" stroke-linecap="round" stroke-linejoin="round"/><path d="M45.00,50.00 L36.75,40.10" fill="#000000" fill-opacity="0.0" stroke="#3F7568" stroke-width="5.4" stroke-linecap="round" stroke-linejoin="round"/><path d="M36.75,40.10 L30.00,32.00" fill="#000000" fill-opacity="0.0" stroke="#699389" stroke-width="3.4" stroke-linecap="round" stroke-linejoin="round"/><path d="M34.85,40.10 a1.9,1.9 0 1,0 3.80,0 a1.9,1.9 0 1,0 -3.80,0" fill="#699389"/><path d="M30.00,49.00 L32.75,42.95" fill="#000000" fill-opacity="0.0" stroke="#D9760F" stroke-width="2.6" stroke-linecap="round" stroke-linejoin="round"/><path d="M32.75,42.95 L35.00,38.00" fill="#000000" fill-opacity="0.0" stroke="#E19444" stroke-width="1.6" stroke-linecap="round" stroke-linejoin="round"/><path d="M30.85,42.95 a1.9,1.9 0 1,0 3.80,0 a1.9,1.9 0 1,0 -3.80,0" fill="#E19444"/><path d="M32.30,38.00 a2.7,2.7 0 1,0 5.40,0 a2.7,2.7 0 1,0 -5.40,0" fill="#E19444"/><path d="M9,50 a6,6 0 1,0 12,0 a6,6 0 1,0 -12,0" fill="#000000" fill-opacity="0.0" stroke="#2B2038" stroke-width="3"/><path d="M16.38,47.84 a0.54,0.54 0 1,0 1.08,0 a0.54,0.54 0 1,0 -1.08,0" fill="#2B2038"/><path d="M16.38,50.36 a0.54,0.54 0 1,0 1.08,0 a0.54,0.54 0 1,0 -1.08,0" fill="#2B2038"/><path d="M17.70,50.00 q1.20,1.08 0,2.10" fill="#000000" fill-opacity="0.0" stroke="#2B2038" stroke-width="0.60" stroke-linecap="round"/><path d="M15.30,52.10 Q17.40,54.02 19.50,51.80" fill="#000000" fill-opacity="0.0" stroke="#2B2038" stroke-width="0.72" stroke-linecap="round"/></svg>