<svg xmlns="http://www.w3.org/2000/svg" viewBox="0 0 100 100" role="img"><path d="M53,65 a7,2.2 0 1,0 14,0 a7,2.2 0 1,0 -14,0" fill="#000022" fill-opacity="0.0"/><path d="M5,65 L95,65" fill="#000000" fill-opacity="0.0" stroke="#E4D5DA" stroke-width="1.5"/><path d="M20.00,62.00 C25.83,55.83 49.17,31.17 55.00,25.00" fill="#000000" fill-opacity="0.0" stroke="#C97086" stroke-width="3.2" stroke-linecap="round" stroke-linejoin="round"/><path d="M20.00,62.00 L42.00,63.65" fill="#000000" fill-opacity="0.0" stroke="#3F7568" stroke-width="5.4" stroke-linecap="round" stroke-linejoin="round"/><path d="M42.00,63.65 L60.00,65.00" fill="#000000" fill-opacity="0.0" stroke="#699389" stroke-width="3.4" stroke-linecap="round" stroke-linejoin="round"/><path d="M40.10,63.65 a1.9,1.9 0 1,0 3.80,0 a1.9,1.9 0 1,0 -3.80,0" fill="#699389"/><path d="M20.00,62.00 L17.25,55.40" fill="#000000" fill-opacity="0.0" stroke="#3F7568" stroke-width="5.4" stroke-linecap="round" stroke-linejoin="round"/><path d="M17.25,55.40 L15.00,50.00" fill="#000000" fill-opacity="0.0" stroke="#699389" stroke-width="3.4" stroke-linecap="round" stroke-linejoin="round"/><path d="M15.35,55.40 a1.9,1.9 0 1,0 3.80,0 a1.9,1.9 0 1,0 -3.80,0" fill="#699389"/><path d="M55.00,25.00 L52.25,36.00" fill="#000000" fill-opacity="0.0" stroke="#D9760F" stroke-width="2.6" stroke-linecap="round" stroke-linejoin="round"/><path d="M52.25,36.00 L50.00,45.00" fill="#000000" fill-opacity="0.0" stroke="#E19444" stroke-width="1.6" stroke-linecap="round" stroke-linejoin="round"/><path d="M50.35,36.00 a1.9,1.9 0 1,0 3.80,0 a1.9,1.9 0 1,0 -3.80,0" fill="#E19444"/><path d="M47.30,45.00 a2.7,2.7 0 1,0 5.40,0 a2.7,2.7 0 1,0 -5.40,0" fill="#E19444"/><path d="M55.00,25.00 L66.00,16.75" fill="#000000" fill-opacity="0.0" stroke="#D9760F" stroke-width="2.6" stroke-linecap="round" stroke-linejoin="round"/><path d="M66.00,16.75 L75.00,10.00" fill="#000000" fill-opacity="0.0" stroke="#E19444" stroke-width="1.6" stroke-linecap="round" stroke-linejoin="round"/><path d="M64.10,16.75 a1.9,1.9 0 1,0 3.80,0 a1.9,1.9 0 1,0 -3.80,0" fill="#E19444"/><path d="M72.30,10.00 a2.7,2.7 0 1,0 5.40,0 a2.7,2.7 0 1,0 -5.40,0" fill="#E19444"/><path d="M52,18 a6,6 0 1,0 12,0 a6,6 0 1,0 -12,0" fill="#000000" fill-opacity="0.0" stroke="#2B2038" stroke-width="3"/><path d="M59.38,15.84 a0.54,0.54 0 1,0 1.08,0 a0.54,0.54 0 1,0 -1.08,0" fill="#2B2038"/><path d="M59.38,18.36 a0.54,0.54 0 1,0 1.08,0 a0.54,0.54 0 1,0 -1.08,0" fill="#2B2038"/><path d="M60.70,18.00 q1.20,1.08 0,2.10" fill="#000000" fill-opacity="0.0" stroke="#2B2038" stroke-width="0.60" stroke-linecap="round"/><path d="M58.30,20.10 Q60.40,22.02 62.50,19.80" fill="#000000" fill-opacity="0.0" stroke="#2B2038" stroke-width="0.72" stroke-linecap="round"/></svg>